<?xml version="1.0" encoding="utf-8"?>
<!-- Generator: Adobe Illustrator 23.1.1, SVG Export Plug-In . SVG Version: 6.00 Build 0)  -->
<svg version="1.1" id="Capa_1" xmlns="http://www.w3.org/2000/svg" xmlns:xlink="http://www.w3.org/1999/xlink" x="0px" y="0px"
	 viewBox="0 0 150 130" style="enable-background:new 0 0 150 130;" xml:space="preserve">
<style type="text/css">
	.st0{fill:#FFFFFF;}
</style>
<g>
	<g>
		<path class="st0" d="M139.7,21.7H10.4c-5.2,0-9.4-3.1-9.4-6.9V8.2c0-3.8,4.2-6.9,9.4-6.9h129.3c5.2,0,9.4,3.1,9.4,6.9v6.7
			C149.1,18.6,144.9,21.7,139.7,21.7z"/>
	</g>
	<g>
		<path class="st0" d="M139.7,128.7H10.4c-5.2,0-9.4-3.1-9.4-6.9v-6.7c0-3.8,4.2-6.9,9.4-6.9h129.3c5.2,0,9.4,3.1,9.4,6.9v6.7
			C149.1,125.6,144.9,128.7,139.7,128.7z"/>
	</g>
	<g>
		<path class="st0" d="M139.7,75.2H10.4c-5.2,0-9.4-3.1-9.4-6.9v-6.7c0-3.8,4.2-6.9,9.4-6.9h129.3c5.2,0,9.4,3.1,9.4,6.9v6.7
			C149.1,72.1,144.9,75.2,139.7,75.2z"/>
	</g>
</g>
</svg>
