<?xml version="1.0" encoding="utf-8"?>
<!-- Generator: Adobe Illustrator 23.1.1, SVG Export Plug-In . SVG Version: 6.00 Build 0)  -->
<svg version="1.1" id="Capa_1" xmlns="http://www.w3.org/2000/svg" xmlns:xlink="http://www.w3.org/1999/xlink" x="0px" y="0px"
	 viewBox="0 0 150 130" style="enable-background:new 0 0 150 130;" xml:space="preserve">
<style type="text/css">
	.st0{fill:#DBF227;}
</style>
<g>
	<path class="st0" d="M139.6,21.7H10.3c-5.2,0-9.4-3.1-9.4-6.9V8.2c0-3.8,4.2-6.9,9.4-6.9h129.3c5.2,0,9.4,3.1,9.4,6.9v6.7
		C149,18.6,144.8,21.7,139.6,21.7z"/>
</g>
<g>
	<path class="st0" d="M139.6,128.7H10.3c-5.2,0-9.4-3.1-9.4-6.9v-6.7c0-3.8,4.2-6.9,9.4-6.9h129.3c5.2,0,9.4,3.1,9.4,6.9v6.7
		C149,125.7,144.8,128.7,139.6,128.7z"/>
</g>
<g>
	<path class="st0" d="M139.6,75.2H10.3c-5.2,0-9.4-3.1-9.4-6.9v-6.7c0-3.8,4.2-6.9,9.4-6.9h129.3c5.2,0,9.4,3.1,9.4,6.9v6.7
		C149,72.1,144.8,75.2,139.6,75.2z"/>
</g>
</svg>
